<?xml version="1.0" encoding="UTF-8"?>
<!DOCTYPE svg PUBLIC "-//W3C//DTD SVG 1.1//EN" "http://www.w3.org/Graphics/SVG/1.1/DTD/svg11.dtd">
<svg version="1.1" xmlns="http://www.w3.org/2000/svg" xmlns:xlink="http://www.w3.org/1999/xlink" x="0" y="0" width="24" height="24" viewBox="0, 0, 24, 24">
  <g id="Ebene_1">
    <path d="M21,11 L21,9 L19,9 L19,7 C19,5.9 18.1,5 17,5 L15,5 L15,3 L13,3 L13,5 L11,5 L11,3 L9,3 L9,5 L7,5 C5.9,5 5,5.9 5,7 L5,9 L3,9 L3,11 L5,11 L5,13 L3,13 L3,15 L5,15 L5,17 C5,18.1 5.9,19 7,19 L9,19 L9,21 L11,21 L11,19 L13,19 L13,21 L15,21 L15,19 L17,19 C18.1,19 19,18.1 19,17 L19,15 L21,15 L21,13 L19,13 L19,11 L21,11 z M17,17 L7,17 L7,7 L17,7 L17,17 z" fill="#000000"/>
    <path d="M10.735,15.793 L13.264,15.793 L13.262,13.266 L15.794,13.266 L15.794,10.734 L13.262,10.734 L13.264,8.207 L10.735,8.207 L10.737,10.734 L8.206,10.734 L8.206,13.266 L10.737,13.266 z" fill="#000000"/>
  </g>
</svg>
