<?xml version="1.0" encoding="UTF-8"?>
<!DOCTYPE svg PUBLIC "-//W3C//DTD SVG 1.1//EN" "http://www.w3.org/Graphics/SVG/1.1/DTD/svg11.dtd">
<svg version="1.1" xmlns="http://www.w3.org/2000/svg" xmlns:xlink="http://www.w3.org/1999/xlink" x="0" y="0" width="24" height="24" viewBox="0, 0, 24, 24">
  <g id="surface1">
    <path d="M0,9 L0,18 L16.152,18 L16.152,0 L0,0 L0,9 M15.371,7.898 L15.371,14.898 L5.363,14.898 L5.363,16.199 C5.363,16.914 5.359,17.504 5.352,17.504 C5.344,17.512 4.402,16.609 3.254,15.504 C2.102,14.398 1.16,13.496 1.152,13.496 C1.148,13.496 1.141,13.488 1.141,13.477 C1.141,13.469 1.125,13.449 1.102,13.438 C1.086,13.43 1.066,13.414 1.066,13.41 C1.066,13.402 1.023,13.355 0.965,13.305 C0.906,13.25 0.859,13.195 0.859,13.184 C0.859,13.172 1.516,12.535 2.316,11.766 C3.117,10.996 4.125,10.027 4.559,9.605 C4.992,9.191 5.348,8.855 5.355,8.859 C5.359,8.863 5.363,9.238 5.363,9.688 L5.363,10.508 L10.816,10.508 L10.816,5.293 L5.41,5.293 L5.41,7.215 L4.805,7.797 C4.344,8.246 3.625,8.934 3.406,9.145 C3.395,9.156 3.289,9.258 3.168,9.379 C3.043,9.496 2.938,9.594 2.934,9.594 C2.926,9.594 2.922,9.598 2.922,9.605 C2.922,9.629 0.871,11.598 0.859,11.586 C0.852,11.582 0.844,9.418 0.844,6.238 L0.844,0.898 L15.371,0.898 L15.371,7.898" fill="#FBFBFB"/>
    <path d="M3.775,9.645 C3.775,13.245 3.784,15.696 3.793,15.7 C3.806,15.714 6.128,13.484 6.128,13.458 C6.128,13.449 6.132,13.445 6.141,13.445 C6.146,13.445 6.265,13.334 6.407,13.201 C6.544,13.064 6.663,12.949 6.677,12.936 C6.924,12.697 7.738,11.918 8.26,11.41 L8.946,10.751 L8.946,8.574 L15.068,8.574 L15.068,14.48 L8.893,14.48 L8.893,13.551 C8.893,13.042 8.888,12.617 8.884,12.613 C8.875,12.609 8.472,12.989 7.981,13.458 C7.49,13.936 6.349,15.032 5.442,15.904 C4.536,16.775 3.793,17.496 3.793,17.51 C3.793,17.523 3.846,17.585 3.912,17.647 C3.978,17.704 4.027,17.757 4.027,17.766 C4.027,17.771 4.049,17.788 4.067,17.797 C4.093,17.81 4.111,17.832 4.111,17.841 C4.111,17.855 4.12,17.863 4.124,17.863 C4.133,17.863 5.199,18.885 6.504,20.137 C7.804,21.389 8.87,22.411 8.879,22.402 C8.888,22.402 8.893,21.734 8.893,20.924 L8.893,19.451 L20.225,19.451 L20.225,3.598 L3.775,3.598 L3.775,9.645" fill="#040404"/>
  </g>
</svg>
